<svg width="25" height="25" viewBox="0 0 25 25" fill="none" xmlns="http://www.w3.org/2000/svg">
<path fill-rule="evenodd" clip-rule="evenodd" d="M12.4994 0C5.59647 0 0 5.73852 0 12.8172C0 18.4798 3.58077 23.2837 8.5484 24.9775C9.17404 25.0961 9.4016 24.7014 9.4016 24.3606C9.4016 24.057 9.39071 23.2515 9.38526 22.1808C5.90801 22.9561 5.17436 20.4624 5.17436 20.4624C4.60577 18.9819 3.78622 18.5882 3.78622 18.5882C2.65128 17.7936 3.87244 17.8091 3.87244 17.8091C5.12692 17.9001 5.78718 19.1295 5.78718 19.1295C6.90192 21.0881 8.71314 20.5212 9.425 20.1952C9.53814 19.3655 9.86186 18.8019 10.2186 18.4808C7.44327 18.1574 4.52532 17.0578 4.52532 12.1468C4.52532 10.7472 5.01218 9.60287 5.81154 8.7067C5.68365 8.38399 5.25385 7.08097 5.93429 5.31558C5.93429 5.31558 6.98365 4.97117 9.37212 6.63042C10.3686 6.34484 11.4381 6.20222 12.5013 6.19795C13.5628 6.20255 14.6327 6.34484 15.6304 6.63042C18.0173 4.97117 19.0651 5.31558 19.0651 5.31558C19.7471 7.08097 19.3176 8.38399 19.1894 8.7067C19.9907 9.60287 20.474 10.7472 20.474 12.1468C20.474 17.0693 17.5519 18.1538 14.7673 18.4699C15.2154 18.8659 15.6154 19.6497 15.6154 20.8456C15.6154 22.5581 15.6003 23.94 15.6003 24.3603C15.6003 24.7037 15.825 25.103 16.4596 24.9758C21.4218 23.2784 25 18.4782 25 12.8172C25 5.73852 19.4035 0 12.4994 0Z" fill="white"/>
</svg>
