<svg width="25" height="25" viewBox="0 0 25 25" fill="none" xmlns="http://www.w3.org/2000/svg">
<path d="M17.7083 2.08337H7.29159C4.4151 2.08337 2.08325 4.41522 2.08325 7.29171V17.7084C2.08325 20.5849 4.4151 22.9167 7.29159 22.9167H17.7083C20.5847 22.9167 22.9166 20.5849 22.9166 17.7084V7.29171C22.9166 4.41522 20.5847 2.08337 17.7083 2.08337Z" stroke="white" stroke-width="2" stroke-linecap="round" stroke-linejoin="round"/>
<path d="M16.6667 11.8437C16.7952 12.7106 16.6472 13.596 16.2435 14.3739C15.8399 15.1518 15.2012 15.7827 14.4184 16.1767C13.6355 16.5707 12.7484 16.7079 11.8831 16.5686C11.0179 16.4294 10.2185 16.0209 9.59881 15.4012C8.9791 14.7814 8.57057 13.9821 8.43134 13.1168C8.29211 12.2516 8.42926 11.3644 8.82328 10.5816C9.2173 9.79875 9.84813 9.16009 10.626 8.75645C11.404 8.3528 12.2893 8.20473 13.1563 8.33328C14.0406 8.46441 14.8592 8.87647 15.4914 9.5086C16.1235 10.1407 16.5356 10.9594 16.6667 11.8437Z" stroke="white" stroke-width="2" stroke-linecap="round" stroke-linejoin="round"/>
<path d="M18.2292 6.77087H18.2377" stroke="white" stroke-width="2" stroke-linecap="round" stroke-linejoin="round"/>
</svg>
