<svg width="25" height="25" viewBox="0 0 25 25" fill="none" xmlns="http://www.w3.org/2000/svg">
<path d="M5.68014 8.12354H0.309082V25.0001H5.68014V8.12354Z" fill="white"/>
<path d="M23.3073 9.66491C22.1791 8.37626 20.6868 7.73181 18.8315 7.73181C18.1479 7.73181 17.5266 7.81979 16.9676 7.99588C16.4089 8.17184 15.937 8.41873 15.5517 8.73665C15.1666 9.05458 14.8599 9.34972 14.6322 9.62208C14.4157 9.88078 14.204 10.1821 13.9974 10.523V8.12323H8.64233L8.65875 8.94077C8.66975 9.4859 8.67517 11.1661 8.67517 13.9816C8.67517 16.7973 8.66434 20.47 8.64256 25H13.9974V15.5822C13.9974 15.0033 14.0567 14.5436 14.1763 14.2027C14.4043 13.6234 14.7485 13.1384 15.2099 12.7469C15.6713 12.3549 16.2435 12.1591 16.9273 12.1591C17.8602 12.1591 18.5467 12.4968 18.9862 13.1723C19.4256 13.8478 19.6453 14.7816 19.6453 15.9738V24.9995H25.0001V15.3271C24.9997 12.8404 24.4359 10.9531 23.3073 9.66491Z" fill="white"/>
<path d="M3.02729 0C2.12679 0 1.39715 0.275517 0.838187 0.826014C0.279282 1.37663 0 2.07178 0 2.91211C0 3.74068 0.271243 4.43344 0.813787 4.98961C1.35616 5.54583 2.07241 5.82409 2.96213 5.82409H2.99468C3.90624 5.82409 4.64147 5.54607 5.2002 4.98961C5.75893 4.43344 6.03286 3.74092 6.02208 2.91211C6.01125 2.07184 5.73436 1.37663 5.19199 0.826014C4.64968 0.275278 3.92784 0 3.02729 0Z" fill="white"/>
</svg>